<svg version="1.1" xmlns="http://www.w3.org/2000/svg" xmlns:xlink="http://www.w3.org/1999/xlink" x="0px" y="0px" width="160px" height="160px" viewBox="0 0 160 160">
  <symbol id="sixers-logo">
   <path fill="#EE3524" d="M27.604,65.953c0,4.697,0,17.75,0,17.75c14.967,2.084,23.692-2.674,30.025-11.76
     c0.385-0.553,0.678-0.262,0.375,0.309c-3.611,6.816-9.775,10.125-14.818,14.838c-10.292,9.619-14.929,20.541-14.461,26.514
     c5.199-3.754,10.916-3.5,16.926-0.996c-0.592-5.287-0.156-16.055,3.516-22.633c3.745-6.721,10.02-13.647,12.116-23.928
     c0.089-0.43-0.311-0.635-0.884-0.016c-8.401,9.053-22.216,8.852-31.954-0.266C28.023,65.373,27.604,65.505,27.604,65.953z"/>
   <path fill="#006595" d="M76.268,83.111c-3.634,0.102-5.728,1.738-7.843,4.016c0.324-7.51,0.777-15.534,5.164-16.213
     c2.284-0.352,1.884,1.195,2.118,3.299c0.664,5.975,4.562,7.469,6.658,6.848c3.023-0.901,4.957-2.077,4.854-5.915
     c-1.24-6.871-5.727-9.311-12.633-8.773c-9.725,0.756-17.429,7.34-18.606,21.096c-1.368,15.994,5.538,25.658,16.451,26.098
     c8.169,0.33,15.909-5.336,15.909-15.787C88.34,85.166,80,83.01,76.268,83.111z M75.986,101.387
     c-0.088,4.439-1.088,7.312-3.915,7.426c-2.061,0.082-3.354-1.691-3.334-6.721c0.006-1.887,0.137-5.664,0.248-7.551
     c0.219-3.691,1.486-5.434,3.568-5.268c2.427,0.191,3.372,2.688,3.433,6.412C76.01,97.111,76.014,99.963,75.986,101.387z"/>
   <path fill="#006595" d="M100.225,106.738c-2.121-0.031-3.258-1.539-3.898-4.066l9.438-2.51c-0.156-4.418-2.428-8.65-8.262-8.65
     c-3.811,0-7.316,2.84-8.26,8.061c-0.654,3.609,0.301,7.229,2.209,9.021c5.631,5.291,13.41,0.529,14.312-2.145l-1.836-2.242
     C103.029,105.779,101.91,106.764,100.225,106.738z M96.057,95.744c0.129-1.102,0.613-1.721,1.424-1.766
     c0.932-0.057,1.461,0.83,1.654,2.047c0.066,0.41,0.188,1.232,0.219,1.648c0.072,0.967-0.572,1.492-1.432,1.773
     c-0.494,0.162-1.994,0.592-1.994,0.592S95.93,96.811,96.057,95.744z"/>
   <path fill="#006595" d="M105.639,110.41v-2.484l1.805-0.316c0,0-0.029-6.502,0-8.67c0.021-1.453-0.289-3.277-2.285-3.189v-2.225
     l6.994-2.096c0.762,1.652,1.156,3.336,1.221,5.268c1.195-3.41,2.064-5.514,4.461-5.09c1.721,0.303,2.514,1.574,2.387,3.641
     c-0.111,1.834-0.703,3.209-2.303,3.191c-1.918-0.02-2.182-0.732-2.572-0.578c-1.074,0.42-1.396,3.17-1.492,5.951
     c-0.033,0.949,0.02,3.797,0.02,3.797l1.775,0.316l0.029,2.484H105.639z"/>
   <path fill="#006595" d="M125.49,110.93c-2.832,0.092-6.504-0.656-6.348-4.107c0.064-1.432,0.98-2.428,2.293-2.521
     c1.148-0.082,2.838,0.521,3.287,2.998c0.191,1.055,0.381,1.381,1.162,1.328c1.293-0.088,2.154-0.508,2.178-1.453
     c0.018-0.766-0.752-1.508-1.783-1.971c-3.115-1.391-5.264-2.303-6.141-4.562c-1.852-4.771,1.941-8.148,6.113-8.879
     c4.586-0.803,6.16,1.309,6.104,2.945c-0.066,1.982-1.453,2.732-2.697,2.697c-1.729-0.049-2.941-1.297-3.234-3.049
     c-0.945-0.109-1.367,0.523-1.369,1.514c-0.002,1.137,1.316,1.566,2.758,2.012c4.148,1.287,5.309,2.979,5.395,5.621
     C133.383,108.436,130.807,110.756,125.49,110.93z"/>
   <polygon fill="#006595" points="37.759,40.601 38.326,42.347 40.164,42.347 38.678,43.427 39.244,45.175 37.759,44.095
     36.272,45.175 36.84,43.427 35.354,42.347 37.191,42.347 		"/>
   <polygon fill="#006595" points="44.105,39.212 44.674,40.96 46.512,40.96 45.025,42.041 45.594,43.789 44.105,42.707
     42.619,43.789 43.188,42.041 41.701,40.96 43.539,40.96 		"/>
   <polygon fill="#006595" points="50.27,40.601 50.837,42.347 52.675,42.347 51.188,43.427 51.755,45.175 50.27,44.095
     48.783,45.175 49.352,43.427 47.865,42.347 49.701,42.347 		"/>
   <polygon fill="#006595" points="54.781,45.373 55.348,47.121 57.185,47.121 55.698,48.201 56.267,49.947 54.781,48.867
     53.294,49.947 53.863,48.201 52.374,47.121 54.213,47.121 		"/>
   <polygon fill="#006595" points="56.555,51.22 57.122,52.968 58.959,52.968 57.473,54.048 58.041,55.796 56.555,54.716
     55.068,55.796 55.635,54.048 54.15,52.968 55.987,52.968 		"/>
   <polygon fill="#006595" points="55.808,57.4 56.375,59.146 58.213,59.146 56.726,60.226 57.294,61.974 55.808,60.894
     54.32,61.974 54.889,60.226 53.402,59.146 55.24,59.146 		"/>
   <polygon fill="#006595" points="52.374,62.396 52.942,64.142 54.781,64.142 53.294,65.224 53.863,66.97 52.374,65.892
     50.888,66.97 51.456,65.224 49.971,64.142 51.808,64.142 		"/>
   <polygon fill="#006595" points="47.02,65.22 47.586,66.966 49.424,66.966 47.938,68.046 48.504,69.794 47.02,68.714
     45.531,69.794 46.1,68.046 44.613,66.966 46.451,66.966 		"/>
   <polygon fill="#006595" points="40.641,64.939 41.207,66.687 43.045,66.687 41.559,67.767 42.127,69.513 40.641,68.435
     39.154,69.513 39.721,67.767 38.235,66.687 40.072,66.687 		"/>
   <polygon fill="#006595" points="35.216,61.726 35.783,63.474 37.62,63.474 36.134,64.554 36.702,66.3 35.216,65.222 33.729,66.3
     34.297,64.554 32.811,63.474 34.647,63.474 		"/>
   <polygon fill="#006595" points="31.824,56.753 32.393,58.5 34.229,58.5 32.742,59.58 33.311,61.328 31.824,60.248 30.338,61.328
     30.905,59.58 29.419,58.5 31.257,58.5 		"/>
   <polygon fill="#006595" points="31.295,50.5 31.862,52.246 33.7,52.246 32.214,53.326 32.782,55.074 31.295,53.996 29.809,55.074
     30.377,53.326 28.891,52.246 30.728,52.246 		"/>
   <polygon fill="#006595" points="33.349,44.867 33.916,46.615 35.754,46.615 34.267,47.695 34.835,49.443 33.349,48.363
     31.862,49.443 32.43,47.695 30.944,46.615 32.781,46.615 		"/>
   <g>
     <path fill="#006595" d="M47.695,109.348c0.041,0.605,0.146,1.721,0.396,2.65c3.394-1.648,6.736-3.379,10.014-5.203
       c-0.424-0.719-0.806-1.486-1.153-2.295C53.902,106.203,50.813,107.82,47.695,109.348z"/>
     <path fill="#006595" d="M80,6.633C39.48,6.633,6.633,39.48,6.633,80c0,40.52,32.848,73.368,73.367,73.368
       S153.367,120.52,153.367,80C153.367,39.48,120.52,6.633,80,6.633z M80,12.111c6.748,0,13.266,0.992,19.424,2.834
       c-0.312,14.367-8.088,31.383-22.35,45.166c-13.291-14.66-27.229-27.432-37.35-34.73C50.999,17.044,64.934,12.111,80,12.111z
        M128.016,127.953c-2.393-4.664-5.969-10.553-10.348-17.061l-2.094,2.016c4.164,6.318,7.754,12.326,10.133,17.25
       C113.635,141.17,97.588,147.893,80,147.893c-0.33,0-0.658-0.008-0.986-0.014c-0.045-6.225,1.035-14.264,4.305-22.787
       c1.73-4.512,4.139-9.105,7.307-13.635c-0.658-0.623-1.281-1.271-1.852-1.953c-4.727,6.928-8.051,14.283-10.287,20.426
       c-2.684,8.242-3.281,15.145-2.906,17.814c-20.221-1.305-38.055-11.502-49.629-26.709c6.108-2.023,12.039-4.379,17.805-7
       c-0.412-0.377-1.338-0.93-3.348-1.312c-5.282,2.301-10.653,4.33-16.11,6.043c-7.246-10.381-11.667-22.869-12.142-36.348
       c2.941,0.604,6.354,0.91,10.217,0.91c1.391,0,2.84-0.049,4.333-0.141l0.025-2.952c-5.573,0.363-10.616,0.098-14.615-0.803
       c0.174-21.053,9.978-39.852,25.216-52.197c10.666,7.129,26.15,22.012,37.822,34.641c-0.709,0.619-1.444,1.215-2.192,1.801
       l2.755,1.264c1.07-0.885,2.109-1.803,3.102-2.758c14.553-14.01,22.828-31.287,23.529-46.289
       c11.92,4.166,22.334,11.566,30.184,21.148c-12.65,18.035-28.275,34.164-46.029,47.842c0.148,0.881,0.492,1.676,1.039,2.379
       c17.842-13.747,33.9-29.799,46.873-47.821c7.678,10.275,12.514,22.789,13.344,36.367c-11.252,1.41-19.744,3.355-31.934,9.688
       c-1.855,0.963-3.518,2.018-5.168,3.184c0.373,0.652,1.09,1.297,2.266,1.568c5.535-3.604,10.531-5.842,15.307-7.574
       c8.137-2.95,14.814-3.932,19.637-4.495c0.018,0.605,0.025,1.211,0.025,1.818C147.891,98.703,140.291,115.662,128.016,127.953z"/>
   </g>
  </symbol>
  <symbol id="grizzlies-logo">
     <path fill="#23375B" d="M147.954,42.329c-0.604-0.932-1.219-1.807-1.846-2.675c15.435-25.311-20.989-44.715-34.184-23.235
       c-16.243-2.989-29.815,2.946-31.644,3.802c-1.819-0.852-15.24-6.709-31.318-3.862C33.027-6.053,0.163,17.11,14.657,39.365
       c-0.695,0.955-1.38,1.932-2.065,2.966C-7.994,73.675,7.468,94.917,7.468,94.917l3.164-3.166c0,0,4.501,21.854,28.286,36.213
       l0.86-4.712c14.643,15.64,28.207,15.274,40.845,29.567c11.682-13.538,28.655-13.538,41.868-30.426v5.999
       c24.435-11.895,26.666-37.604,26.666-37.604l2.259,4.17C151.418,94.96,168.558,73.673,147.954,42.329"/>
     <path fill="#FDB827" d="M96.792,64.1c1.15-0.417,3.172,0.791,4.254,2.893c4.95-1.439,4.685-8.109,4.656-8.583
       C101.763,59.937,98.522,62.571,96.792,64.1"/>
     <path fill="#6189B9" d="M81.109,96.362c1.361-0.214,23.065-1,9.774,12.488C100.148,96.578,83.344,96.487,81.109,96.362
        M118.65,26.359c0,0,4.882-12.201,19.832-9.25c0,0-13.723-9.039-23.279,7.304c0,0-13.552-6.436-33.997,2.396
       c0,0-19.364-6.75-33.964-2.923c0,0-8.507-14.777-20.497-8.688c-11.98,6.081-5.74,20.154-3.648,23.798
       c0,0-19.873,20.238-12.403,45.269l4-4.984c0,0,5.695,27.247,20.437,35.838l0.878-6.701c0,0,15.374,18.549,33.454,26.428
       c1.704,0.805,11.312,5.563,11.602,7.915v-12.981c0,0-12.561,1.045-15.866-4.74c-2.25-3.938-16.655-29.657-9.538-56.598
       c0,0-6.935-1.029-8.244-12.737c0,0-5.175-2.513-11.601-1.994c0,0,11.496-3.599,22.283,0.561
       c10.765,4.176,13.647,14.792,20.954,10.099l2.153-29.909l2.055,29.909c7.307,4.693,10.189-5.923,20.959-10.099
       c10.784-4.159,22.272-0.561,22.272-0.561s-4.59-3.246-11.98-4.72c-6.18-1.236-15.252,2.733-15.252,2.733s1.257-8.489,5.381-13.02
       C108.176,34.817,116.172,33.961,118.65,26.359 M25.682,36.665c-0.44-4.071,4.71-8.105,4.71-8.105
       c-2.118-2.194-5.828-0.289-5.828-0.289c3.358-6.576,10.891-3.363,10.891-3.363c-2.847-3.492-8.905-3.272-8.905-3.272
       c7.489-7.409,16.509,3.923,16.509,3.923C35.016,27.369,25.682,36.665,25.682,36.665 M105.706,58.41L105.706,58.41
       c-0.063,0.024-0.114,0.047-0.16,0.069C105.589,58.457,105.643,58.43,105.706,58.41 M99.71,68.052
       c12.008,32.303-3.287,53.048-3.287,53.048c9.421-24.644,3.364-45.146-0.766-52.765c-2.101,0.206-4.642,0.095-4.642,0.095
       s3.174-1.971,5.241-3.843c0.157-0.144,0.343-0.31,0.552-0.495c0,0.004-0.017,0.004-0.017,0.008
       c1.152-0.417,3.172,0.792,4.254,2.895c4.95-1.435,4.688-8.089,4.66-8.583c1.434-0.562,2.979-0.967,4.562-1.129
       C110.268,57.28,109.133,67.902,99.71,68.052"/>
     <path fill="#FDB827" d="M57.158,58.395c-0.027,0.491-0.286,7.165,4.659,8.598c1.064-2.065,2.971-3.26,4.13-2.907
       C63.284,62.033,59.98,59.74,57.158,58.395"/>
     <path fill="#BBD1E4" d="M81.066,126.679c-15.137,0-13.106-3.332-13.106-3.332c1.642-1.019,12.237-1.232,13.09-1.232
       c0.842,0,11.471,0.214,13.112,1.232C94.162,123.347,96.201,126.679,81.066,126.679 M57.167,58.401c0,0-0.013-0.004-0.013-0.01
       C57.154,58.397,57.167,58.401,57.167,58.401 M81.066,112.667v6.141l-4.176,0.22c-4.385,0.127-10.109,1.911-10.109,1.911
       c-10.618-26.299-4.728-46.202-1.896-53.301c-10.53,2.285-12.232-10.354-12.232-10.354c1.094-0.224,2.696,0.249,4.503,1.109
       c-0.023,0.497-0.277,7.167,4.661,8.602c1.064-2.065,2.963-3.264,4.114-2.916c0.782,0.61,1.521,1.201,2.162,1.739
       c7.147,6.027,12.708,4.8,12.708,4.8s0.08,22.927,0.08,25.746c0,0-20.709-1.62-9.59,12.479c0,0,1.792-5.154,3.691-3.526
       C77.611,107.577,81.066,112.183,81.066,112.667"/>
  </symbol>
</svg>
